<?xml version="1.0" standalone="no"?>
<!DOCTYPE svg PUBLIC "-//W3C//DTD SVG 20010904//EN"
 "http://www.w3.org/TR/2001/REC-SVG-20010904/DTD/svg10.dtd">
<svg version="1.0" xmlns="http://www.w3.org/2000/svg"
 width="260.000000pt" height="260.000000pt" viewBox="0 0 260.000000 260.000000"
 preserveAspectRatio="xMidYMid meet">
<metadata>
Created by potrace 1.14, written by Peter Selinger 2001-2017
</metadata>
<g transform="translate(0.000000,260.000000) scale(0.100000,-0.100000)"
fill="#000000" stroke="none">
<path d="M232 2579 l23 -20 -35 17 -35 17 19 -22 c15 -17 16 -20 4 -16 -9 4
-19 2 -23 -4 -4 -8 -12 -8 -25 -1 -16 9 -18 7 -15 -10 3 -17 1 -19 -15 -10
-16 8 -18 7 -15 -9 3 -15 0 -18 -12 -14 -11 4 -14 2 -9 -5 4 -7 2 -12 -4 -12
-6 0 -8 -5 -4 -12 5 -7 1 -9 -13 -6 -16 4 -19 1 -16 -12 3 -10 -2 -20 -12 -23
-13 -5 -14 -11 -5 -27 9 -16 8 -20 -5 -20 -10 0 -13 -5 -9 -12 5 -8 2 -9 -9
-5 -16 6 -17 -71 -17 -1069 0 -987 2 -1075 17 -1070 13 5 14 4 3 -9 -14 -17 0
-21 16 -5 7 7 11 6 11 -4 0 -8 -4 -13 -8 -10 -4 2 -7 -5 -6 -16 1 -11 5 -20
10 -20 5 0 6 -7 3 -16 -3 -8 -2 -13 3 -10 5 3 12 -1 15 -10 4 -10 13 -14 28
-10 13 3 17 3 11 0 -20 -9 -16 -35 5 -32 9 2 18 -4 18 -12 1 -8 2 -19 3 -24 0
-5 9 -2 18 5 9 8 14 10 11 4 -3 -5 0 -15 7 -22 11 -10 15 -10 18 0 4 9 6 9 6
0 1 -7 6 -13 12 -13 5 0 8 4 5 8 -3 5 1 9 9 9 12 0 12 -4 -2 -20 -17 -19 -17
-20 4 -8 31 16 41 14 17 -4 -17 -12 110 -14 1054 -15 852 0 1072 3 1066 13 -5
8 -2 7 9 -2 15 -12 21 -9 18 12 0 4 4 7 10 7 5 0 7 6 3 13 -4 6 3 3 15 -7 21
-19 21 -19 15 -1 -6 15 -4 17 14 13 16 -5 20 -2 17 13 -3 13 1 16 12 12 12 -5
15 -2 11 8 -4 11 0 15 16 15 15 -1 21 5 20 20 0 16 5 20 20 17 12 -2 16 -1 9
3 -9 4 -9 11 -1 29 6 14 15 22 19 19 5 -3 9 2 9 11 0 10 -5 13 -12 9 -7 -4 -5
2 5 13 9 11 15 23 12 26 -3 4 -2 5 2 2 12 -9 12 -36 1 -29 -7 4 -8 2 -4 -5 4
-6 11 -9 17 -6 13 9 11 2156 -2 2175 -9 13 -10 12 -5 -2 3 -10 1 -20 -5 -23
-5 -4 -9 -3 -8 2 5 28 -2 53 -13 47 -7 -4 -10 -4 -6 1 4 4 3 14 -4 22 -6 7 -8
16 -4 20 3 3 6 1 6 -5 0 -7 5 -12 11 -12 8 0 7 5 -1 15 -7 9 -20 13 -28 10
-12 -4 -12 -3 -3 9 9 11 9 16 0 22 -8 4 -9 3 -5 -4 4 -7 2 -12 -5 -12 -7 0 -9
8 -6 21 5 17 3 18 -10 8 -12 -11 -14 -10 -11 7 2 11 -2 18 -9 16 -7 -1 -13 5
-13 13 0 8 -7 15 -15 15 -8 0 -15 5 -15 12 0 6 -3 8 -7 4 -5 -4 1 -14 11 -22
11 -8 16 -14 10 -14 -15 1 -44 26 -37 33 3 4 -3 7 -15 7 -12 0 -22 -5 -22 -12
0 -6 -3 -8 -6 -5 -4 4 -2 13 5 21 9 11 8 15 -4 20 -9 3 -500 6 -1091 6 l-1075
-1 23 -20z m2133 -2539 c3 -5 1 -10 -4 -10 -6 0 -11 5 -11 10 0 6 2 10 4 10 3
0 8 -4 11 -10z"/>
</g>
</svg>
